# xmcd CD database file
#
# Track frame offsets:
#	150
#	17059
#	33176
#	46898
#	64853
#	87117
#	105854
#	119266
#	136496
#	159629
#	199689
#	216598
#	230320
#	252584
#	269814
#	292947
#
# Disc length: 4438 seconds
#
# Revision: 0
# Processed by: cddbd v1.4PL0 Copyright (c) Steve Scherf et al.
# Submitted via: CDex 1.50
#
DISCID=e4115410
DTITLE=Travis Tritt - T-R-O-U-B-L-E Zetroc Tunes Edition
DYEAR=1992
DGENRE=Country
TTITLE0=Looking Out for Number One 
TTITLE1=Can I Trust You With My Heart 
TTITLE2=T-R-O-U-B-L-E
TTITLE3=When I Touch You 
TTITLE4=Lord Have Mercy on the Working Man 
TTITLE5=I Wish I Could Go Back Home 
TTITLE6=Hundred Years from Now 
TTITLE7=Blue Collar Man 
TTITLE8=Worth Every Mile 
TTITLE9=Leave My Girl Alone 
TTITLE10=Looking Out for Number One 
TTITLE11=T-R-O-U-B-L-E
TTITLE12=Lord Have Mercy on the Working Man 
TTITLE13=Blue Collar Man 
TTITLE14=Worth Every Mile 
TTITLE15=Leave My Girl Alone 
EXTD=YEAR: 1992
EXTT0=
EXTT1=
EXTT2=
EXTT3=
EXTT4=
EXTT5=
EXTT6=
EXTT7=
EXTT8=
EXTT9=
EXTT10=
EXTT11=
EXTT12=
EXTT13=
EXTT14=
EXTT15=
PLAYORDER=
